<mxfile host="app.diagrams.net" modified="2023-05-05T18:48:05.846Z" agent="Mozilla/5.0 (Windows NT 10.0; Win64; x64) AppleWebKit/537.36 (KHTML, like Gecko) Chrome/112.0.0.0 Safari/537.36" etag="B2MiM5oiaf_ZDSZxfG6i" version="21.2.9" type="github">
  <diagram name="Страница 1" id="8dVOq_bRE-HuBzc4IuNq">
    <mxGraphModel dx="1150" dy="483" grid="0" gridSize="10" guides="1" tooltips="1" connect="1" arrows="1" fold="1" page="1" pageScale="1" pageWidth="1169" pageHeight="827" math="0" shadow="0">
      <root>
        <mxCell id="0" />
        <mxCell id="1" parent="0" />
        <mxCell id="jql0JsHNGu1SeSNrbGpS-1" value="Efiling" style="rounded=1;whiteSpace=wrap;html=1;" parent="1" vertex="1">
          <mxGeometry x="70" y="200" width="120" height="60" as="geometry" />
        </mxCell>
        <mxCell id="jql0JsHNGu1SeSNrbGpS-2" value="ZIGS API" style="rounded=1;whiteSpace=wrap;html=1;" parent="1" vertex="1">
          <mxGeometry x="280" y="200" width="120" height="60" as="geometry" />
        </mxCell>
        <mxCell id="jql0JsHNGu1SeSNrbGpS-3" value="ZIGS" style="rounded=1;whiteSpace=wrap;html=1;" parent="1" vertex="1">
          <mxGeometry x="280" y="320" width="120" height="60" as="geometry" />
        </mxCell>
        <mxCell id="jql0JsHNGu1SeSNrbGpS-4" value="ZamPay" style="rounded=1;whiteSpace=wrap;html=1;" parent="1" vertex="1">
          <mxGeometry x="280" y="111" width="120" height="60" as="geometry" />
        </mxCell>
        <mxCell id="jql0JsHNGu1SeSNrbGpS-5" value="Payment&lt;br&gt;Partners &lt;br&gt;API" style="ellipse;shape=cloud;whiteSpace=wrap;html=1;" parent="1" vertex="1">
          <mxGeometry x="80" width="120" height="80" as="geometry" />
        </mxCell>
        <mxCell id="jql0JsHNGu1SeSNrbGpS-6" value="Payment&lt;br&gt;Docs" style="rounded=1;whiteSpace=wrap;html=1;" parent="1" vertex="1">
          <mxGeometry x="280" y="5" width="120" height="60" as="geometry" />
        </mxCell>
        <mxCell id="jql0JsHNGu1SeSNrbGpS-7" value="ZIGS DB" style="rounded=1;whiteSpace=wrap;html=1;" parent="1" vertex="1">
          <mxGeometry x="280" y="440" width="120" height="60" as="geometry" />
        </mxCell>
        <mxCell id="jql0JsHNGu1SeSNrbGpS-8" value="ZIGS Docs" style="rounded=1;whiteSpace=wrap;html=1;" parent="1" vertex="1">
          <mxGeometry x="80" y="320" width="120" height="60" as="geometry" />
        </mxCell>
        <mxCell id="jql0JsHNGu1SeSNrbGpS-9" value="ZEMA API" style="rounded=1;whiteSpace=wrap;html=1;" parent="1" vertex="1">
          <mxGeometry x="520" y="200" width="120" height="60" as="geometry" />
        </mxCell>
        <mxCell id="jql0JsHNGu1SeSNrbGpS-10" value="ZEMA" style="rounded=1;whiteSpace=wrap;html=1;" parent="1" vertex="1">
          <mxGeometry x="520" y="320" width="120" height="60" as="geometry" />
        </mxCell>
        <mxCell id="jql0JsHNGu1SeSNrbGpS-11" value="ZEMA Docs" style="rounded=1;whiteSpace=wrap;html=1;" parent="1" vertex="1">
          <mxGeometry x="720" y="320" width="120" height="60" as="geometry" />
        </mxCell>
        <mxCell id="jql0JsHNGu1SeSNrbGpS-12" value="ZEMA DB" style="rounded=1;whiteSpace=wrap;html=1;" parent="1" vertex="1">
          <mxGeometry x="520" y="440" width="120" height="60" as="geometry" />
        </mxCell>
        <mxCell id="jql0JsHNGu1SeSNrbGpS-15" value="" style="endArrow=classic;startArrow=classic;html=1;rounded=0;entryX=1;entryY=0.5;entryDx=0;entryDy=0;exitX=0;exitY=0.5;exitDx=0;exitDy=0;" parent="1" source="jql0JsHNGu1SeSNrbGpS-2" target="jql0JsHNGu1SeSNrbGpS-1" edge="1">
          <mxGeometry width="50" height="50" relative="1" as="geometry">
            <mxPoint x="470" y="260" as="sourcePoint" />
            <mxPoint x="520" y="210" as="targetPoint" />
            <Array as="points" />
          </mxGeometry>
        </mxCell>
        <mxCell id="jql0JsHNGu1SeSNrbGpS-16" value="" style="endArrow=classic;startArrow=classic;html=1;rounded=0;entryX=0.5;entryY=1;entryDx=0;entryDy=0;exitX=0.5;exitY=0;exitDx=0;exitDy=0;" parent="1" source="jql0JsHNGu1SeSNrbGpS-3" target="jql0JsHNGu1SeSNrbGpS-2" edge="1">
          <mxGeometry width="50" height="50" relative="1" as="geometry">
            <mxPoint x="560" y="350" as="sourcePoint" />
            <mxPoint x="610" y="300" as="targetPoint" />
          </mxGeometry>
        </mxCell>
        <mxCell id="jql0JsHNGu1SeSNrbGpS-17" value="" style="endArrow=classic;startArrow=classic;html=1;rounded=0;entryX=0.5;entryY=1;entryDx=0;entryDy=0;exitX=0.5;exitY=0;exitDx=0;exitDy=0;" parent="1" source="jql0JsHNGu1SeSNrbGpS-7" target="jql0JsHNGu1SeSNrbGpS-3" edge="1">
          <mxGeometry width="50" height="50" relative="1" as="geometry">
            <mxPoint x="560" y="350" as="sourcePoint" />
            <mxPoint x="610" y="300" as="targetPoint" />
          </mxGeometry>
        </mxCell>
        <mxCell id="jql0JsHNGu1SeSNrbGpS-18" value="" style="endArrow=classic;startArrow=classic;html=1;rounded=0;entryX=0;entryY=1;entryDx=0;entryDy=0;exitX=1;exitY=0;exitDx=0;exitDy=0;" parent="1" source="jql0JsHNGu1SeSNrbGpS-8" target="jql0JsHNGu1SeSNrbGpS-2" edge="1">
          <mxGeometry width="50" height="50" relative="1" as="geometry">
            <mxPoint x="560" y="260" as="sourcePoint" />
            <mxPoint x="610" y="210" as="targetPoint" />
          </mxGeometry>
        </mxCell>
        <mxCell id="jql0JsHNGu1SeSNrbGpS-20" value="" style="endArrow=classic;startArrow=classic;html=1;rounded=0;entryX=0.5;entryY=1;entryDx=0;entryDy=0;exitX=0.5;exitY=0;exitDx=0;exitDy=0;" parent="1" source="jql0JsHNGu1SeSNrbGpS-4" target="jql0JsHNGu1SeSNrbGpS-6" edge="1">
          <mxGeometry width="50" height="50" relative="1" as="geometry">
            <mxPoint x="440" y="130" as="sourcePoint" />
            <mxPoint x="490" y="80" as="targetPoint" />
          </mxGeometry>
        </mxCell>
        <mxCell id="jql0JsHNGu1SeSNrbGpS-21" value="" style="endArrow=classic;startArrow=classic;html=1;rounded=0;entryX=0.96;entryY=0.7;entryDx=0;entryDy=0;entryPerimeter=0;exitX=0;exitY=0;exitDx=0;exitDy=0;" parent="1" source="jql0JsHNGu1SeSNrbGpS-4" target="jql0JsHNGu1SeSNrbGpS-5" edge="1">
          <mxGeometry width="50" height="50" relative="1" as="geometry">
            <mxPoint x="440" y="130" as="sourcePoint" />
            <mxPoint x="490" y="80" as="targetPoint" />
          </mxGeometry>
        </mxCell>
        <mxCell id="jql0JsHNGu1SeSNrbGpS-22" value="" style="endArrow=classic;startArrow=classic;html=1;rounded=0;entryX=0.5;entryY=1;entryDx=0;entryDy=0;exitX=0.5;exitY=0;exitDx=0;exitDy=0;" parent="1" source="jql0JsHNGu1SeSNrbGpS-2" target="jql0JsHNGu1SeSNrbGpS-4" edge="1">
          <mxGeometry width="50" height="50" relative="1" as="geometry">
            <mxPoint x="440" y="130" as="sourcePoint" />
            <mxPoint x="490" y="80" as="targetPoint" />
          </mxGeometry>
        </mxCell>
        <mxCell id="jql0JsHNGu1SeSNrbGpS-23" value="" style="endArrow=classic;startArrow=classic;html=1;rounded=0;entryX=0;entryY=0.5;entryDx=0;entryDy=0;exitX=1;exitY=0.5;exitDx=0;exitDy=0;" parent="1" source="jql0JsHNGu1SeSNrbGpS-2" target="jql0JsHNGu1SeSNrbGpS-9" edge="1">
          <mxGeometry width="50" height="50" relative="1" as="geometry">
            <mxPoint x="440" y="220" as="sourcePoint" />
            <mxPoint x="490" y="170" as="targetPoint" />
          </mxGeometry>
        </mxCell>
        <mxCell id="jql0JsHNGu1SeSNrbGpS-24" value="" style="endArrow=classic;startArrow=classic;html=1;rounded=0;entryX=0.5;entryY=1;entryDx=0;entryDy=0;exitX=0.5;exitY=0;exitDx=0;exitDy=0;" parent="1" source="jql0JsHNGu1SeSNrbGpS-10" target="jql0JsHNGu1SeSNrbGpS-9" edge="1">
          <mxGeometry width="50" height="50" relative="1" as="geometry">
            <mxPoint x="440" y="310" as="sourcePoint" />
            <mxPoint x="490" y="260" as="targetPoint" />
          </mxGeometry>
        </mxCell>
        <mxCell id="jql0JsHNGu1SeSNrbGpS-25" value="" style="endArrow=classic;startArrow=classic;html=1;rounded=0;entryX=0.5;entryY=1;entryDx=0;entryDy=0;exitX=0.5;exitY=0;exitDx=0;exitDy=0;" parent="1" source="jql0JsHNGu1SeSNrbGpS-12" target="jql0JsHNGu1SeSNrbGpS-10" edge="1">
          <mxGeometry width="50" height="50" relative="1" as="geometry">
            <mxPoint x="440" y="310" as="sourcePoint" />
            <mxPoint x="490" y="260" as="targetPoint" />
          </mxGeometry>
        </mxCell>
        <mxCell id="jql0JsHNGu1SeSNrbGpS-26" value="" style="endArrow=classic;startArrow=classic;html=1;rounded=0;entryX=0;entryY=0;entryDx=0;entryDy=0;exitX=1;exitY=1;exitDx=0;exitDy=0;" parent="1" source="jql0JsHNGu1SeSNrbGpS-9" target="jql0JsHNGu1SeSNrbGpS-11" edge="1">
          <mxGeometry width="50" height="50" relative="1" as="geometry">
            <mxPoint x="440" y="220" as="sourcePoint" />
            <mxPoint x="490" y="170" as="targetPoint" />
          </mxGeometry>
        </mxCell>
        <mxCell id="-2WGcBhYNuDoAbZ6WmxD-2" value="ZamSign" style="rounded=1;whiteSpace=wrap;html=1;" vertex="1" parent="1">
          <mxGeometry x="520" y="56" width="120" height="60" as="geometry" />
        </mxCell>
        <mxCell id="-2WGcBhYNuDoAbZ6WmxD-3" value="" style="endArrow=classic;startArrow=classic;html=1;rounded=0;entryX=0.5;entryY=1;entryDx=0;entryDy=0;exitX=0.5;exitY=0;exitDx=0;exitDy=0;" edge="1" parent="1" source="jql0JsHNGu1SeSNrbGpS-9" target="-2WGcBhYNuDoAbZ6WmxD-2">
          <mxGeometry width="50" height="50" relative="1" as="geometry">
            <mxPoint x="558" y="277" as="sourcePoint" />
            <mxPoint x="608" y="227" as="targetPoint" />
          </mxGeometry>
        </mxCell>
        <mxCell id="-2WGcBhYNuDoAbZ6WmxD-4" value="" style="endArrow=classic;startArrow=classic;html=1;rounded=0;entryX=0;entryY=1;entryDx=0;entryDy=0;exitX=1;exitY=0;exitDx=0;exitDy=0;" edge="1" parent="1" source="jql0JsHNGu1SeSNrbGpS-2" target="-2WGcBhYNuDoAbZ6WmxD-2">
          <mxGeometry width="50" height="50" relative="1" as="geometry">
            <mxPoint x="558" y="277" as="sourcePoint" />
            <mxPoint x="608" y="227" as="targetPoint" />
          </mxGeometry>
        </mxCell>
      </root>
    </mxGraphModel>
  </diagram>
</mxfile>
